<svg width="800" height="800" viewBox="0 0 800 800" fill="none" xmlns="http://www.w3.org/2000/svg">
<path opacity="0.09" d="M197.1 622.2C184.7 612.5 176.6 598.2 174.6 582.6C167.6 530.1 179.8 413.3 290.2 315.5C424.2 196.8 564.2 205 632 234.8C706.7 267.6 754.1 377.6 761.8 475.6C767.6 549.3 725.5 612.7 654.3 632.7C534.8 666.2 287 692.7 197.1 622.2Z" fill="#2A94F4"/>
<path opacity="0.3" d="M635.8 543C648.7 532.9 657.1 518.1 659.2 501.8C666.4 447.2 653.8 325.8 539 224.1C399.6 100.7 254.1 109.2 183.6 140.2C105.9 174.3 56.6 288.7 48.7 390.6C42.7 467.2 86.4 533.2 160.5 553.9C284.6 588.9 542.3 616.3 635.8 543Z" fill="#CCE9FF"/>
<path d="M357 305.8C357 305.8 333 284 344.8 260.8C346.8 256.8 347.6 252.4 347.5 248C347.4 244.1 348.5 239.1 353.2 234.6C362.5 225.6 374.5 217.9 392.3 218.5C410.1 219.1 423.8 224.5 430.6 218.5C436.5 213.4 437.9 216.7 437 225.8C436.7 228.8 437.6 231.7 439.4 234C441.9 237.1 444.9 242.1 445 248.4C445.1 252.4 445.9 256.3 447.5 259.9C451.3 268.4 455.1 285.8 437.7 307" fill="#192541"/>
<path d="M323.3 511.4C323.8 502.3 323.7 493.2 323.3 484.1C321.6 450.9 322.9 430 322.9 415.5C322.9 406.8 328.5 378.5 342.5 376.9C357.8 375.1 380.2 370.8 415.2 372.9C462.7 375.7 465.8 386.5 465.6 417.1C465.5 428.5 468.6 577.4 468.6 577.4C418.2 596.7 324.4 579.4 324.4 579.4C328.3 571.9 321.3 547.1 323.3 511.4Z" fill="#192541"/>
<path d="M493.1 445.4C493.1 445.4 514.9 495 510.2 524.8C507 545.1 460 561.3 446.1 557.9C432.2 554.5 433.8 551.4 446.6 545C459.4 538.6 486.3 530.1 476.7 506.1C467.2 482.1 450.9 432.8 450.9 432.8L493.1 445.4Z" fill="#FCD2B1"/>
<path d="M447.1 377.6C447.1 377.6 464.8 378.3 478.7 394.9C482.8 399.8 484.3 407.6 487.8 415.4C490.4 421.2 488.9 427.4 490.7 435C490.7 435 499.8 457 499.8 459.5C499.8 459.5 464.8 465.4 458.7 469.3C452.6 473.1 434.1 377.4 447.1 377.6Z" fill="#192541"/>
<path d="M299.8 441.8C299.8 441.8 276.1 496.3 280.8 526.1C284 546.4 327.2 562.7 341.1 559.3C355 555.9 358.5 550.9 345.7 544.5C332.9 538.1 301.8 524.6 311.3 500.5C320.8 476.5 339.3 432.7 339.3 432.7L299.8 441.8Z" fill="#FCD2B1"/>
<path d="M340.9 377.6C340.9 377.6 322.4 378.6 311.3 387C305 391.8 303.6 399.4 302.9 409.4C302.2 420.2 296.8 429 293.8 440.2C292.1 446.3 289.8 458.8 289.8 460.2C289.8 460.2 318.4 462 329.9 465.5C336.9 467.7 353.9 377.4 340.9 377.6Z" fill="#192541"/>
<path d="M414.9 375.4V333.9H372.2V374.1C372.2 374.1 373.5 401.1 394.9 401.4C411.5 401.7 414.9 375.4 414.9 375.4Z" fill="#FCD2B1"/>
<path d="M414.9 354.9C414.9 354.9 410.5 367.6 394.8 367.6C384.5 367.6 372.3 356.1 372.3 352.3L372.2 339.7L414.9 342V354.9V354.9Z" fill="#F4C6A4"/>
<path d="M349.915 295.881C344.604 298.069 342.584 305.39 345.403 312.232C348.222 319.075 354.812 322.848 360.123 320.661C365.433 318.473 367.453 311.152 364.635 304.31C361.816 297.467 355.225 293.694 349.915 295.881Z" fill="#FCD2B1"/>
<path d="M444.295 296.171C439.111 293.698 432.325 297.109 429.139 303.789C425.953 310.469 427.573 317.888 432.758 320.361C437.942 322.834 444.727 319.423 447.913 312.743C451.099 306.063 449.479 298.644 444.295 296.171Z" fill="#FCD2B1"/>
<path d="M412.5 332.1C407.1 335.7 394.6 339.1 380.8 333.1C379.7 332.6 378.7 333.8 379.1 334.9C380.9 340.8 386.4 347.8 398.6 347.6C409 347.4 413.1 338.7 414.5 334.1C414.8 332.9 413.5 331.4 412.5 332.1Z" fill="white"/>
<path d="M470.4 462.8H319.5V566.7H470.4V462.8Z" fill="#BBBCBC"/>
<path d="M473.1 566.7H316.9V572.1H473.1V566.7Z" fill="#878787"/>
<path d="M603 572H196.2V589.5H603V572Z" fill="#192541"/>
<path d="M405.224 534.069L452.255 529.041L447.269 482.408L400.239 487.436L405.224 534.069Z" fill="#FFBE55"/>
<path d="M446.6 483.2L451.4 528.4L405.8 533.3L401 488L446.6 483.2ZM447.9 481.6L446.5 481.8L400.9 486.7L399.5 486.9L399.7 488.3L404.5 533.5L404.7 534.9L406.1 534.7L451.7 529.8L453.1 529.6L452.9 528.2L448 483L447.9 481.6Z" fill="#F7F7F7"/>
<path d="M444.1 507.6C443 508.5 442 509.3 441 510.1C440.8 509.9 440.6 509.6 440.4 509.4C439.7 508.6 438.7 508.4 437.7 508.6C437 508.8 436.5 509.2 436.3 510C436.1 510.8 436.4 511.5 437 511.9C437.6 512.3 438.3 512.5 438.9 512.8C440.4 513.4 441.9 513.8 443.3 514.5C445.8 515.8 447 518.2 446.6 521C446.4 522.6 445.5 524 444.1 524.8C440.9 526.7 437.6 526.8 434.3 525C433.3 524.4 432.5 523.6 431.8 522.5C432.9 521.7 434 520.9 435.1 520.1C435.4 520.4 435.7 520.7 435.9 521C437.3 522.3 439.2 522.7 440.8 521.9C441.6 521.6 442.1 521 442.1 520.1C442.1 519.2 441.7 518.6 440.9 518.2C439.8 517.8 438.7 517.4 437.5 517C436.6 516.6 435.6 516.3 434.7 515.8C432.4 514.5 431.3 512 431.8 509.5C432.2 507.2 434 505.4 436.6 504.9C439.4 504.4 441.8 504.8 443.7 507.2C443.9 507.3 443.9 507.4 444.1 507.6Z" fill="#303030"/>
<path d="M420.1 522C420.5 522.4 420.7 522.8 421 523.1C421.7 523.8 422.5 524 423.5 523.8C424.4 523.6 424.9 523.1 425 522.1C425 521.7 425 521.2 425 520.8C424.5 516.3 424.1 511.8 423.5 507.3C423.4 506.6 423.6 506.4 424.3 506.3C425.2 506.3 426.1 506.2 427 506C427.6 505.9 427.8 506.1 427.9 506.7C428.3 511.1 428.8 515.4 429.3 519.8C429.3 520.3 429.4 520.7 429.4 521.2C429.6 524.8 428 526.9 424.5 527.7C421.6 528.4 418.8 527.4 417.1 525.1C416.8 524.6 416.8 524.4 417.3 524.1C418.2 523.5 419.1 522.8 420.1 522Z" fill="#303030"/>
<path d="M395.9 364C419.262 364 438.2 336.555 438.2 302.7C438.2 268.845 419.262 241.4 395.9 241.4C372.538 241.4 353.6 268.845 353.6 302.7C353.6 336.555 372.538 364 395.9 364Z" fill="#FCD2B1"/>
<path d="M396.1 278.5C422.278 278.5 443.5 268.426 443.5 256C443.5 243.574 422.278 233.5 396.1 233.5C369.922 233.5 348.7 243.574 348.7 256C348.7 268.426 369.922 278.5 396.1 278.5Z" fill="#192541"/>
</svg>
